<?xml version="1.0" standalone="no"?>
<!DOCTYPE svg PUBLIC "-//W3C//DTD SVG 20010904//EN"
 "http://www.w3.org/TR/2001/REC-SVG-20010904/DTD/svg10.dtd">
<svg version="1.0" xmlns="http://www.w3.org/2000/svg"
 width="256.000000pt" height="256.000000pt" viewBox="0 0 256.000000 256.000000"
 preserveAspectRatio="xMidYMid meet">
<metadata>
Created by potrace 1.11, written by Peter Selinger 2001-2013
</metadata>
<g transform="translate(0.000000,256.000000) scale(0.100000,-0.100000)"
fill="#000000" stroke="none">
<path d="M1139 2556 c-2 -2 -24 -6 -49 -9 -117 -14 -309 -78 -426 -143 -224
-123 -427 -337 -537 -564 -47 -99 -92 -235 -110 -340 -15 -84 -17 -373 -3
-430 3 -14 8 -35 10 -48 72 -360 316 -686 650 -872 42 -23 199 -90 225 -95 9
-2 57 -14 106 -26 77 -20 116 -23 275 -23 167 0 195 2 291 26 391 98 697 344
863 693 44 94 72 168 91 250 35 142 43 377 18 520 -91 530 -507 950 -1036
1045 -85 15 -356 27 -368 16z"/>
</g>
</svg>
